# xmcd CD database file
#
# Track frame offsets:
#	150
#	7776
#	37437
#	61288
#	91170
#	116452
#	152617
#	168980
#	246164
#
# Disc length: 3694 seconds
#
# Revision: 0
# Processed by: cddbd v1.5PL3 Copyright (c) Steve Scherf et al.
# Submitted via: CDex 1.51
#
DISCID=660e6c09
DTITLE=Popa Chubby - One Night Live in New York City
DYEAR=1999
DGENRE=Blues
TTITLE0=Intro
TTITLE1=The real thing
TTITLE2=Lie down with the blues
TTITLE3=Nobody knows you
TTITLE4=Shakedown
TTITLE5=Arlita
TTITLE6=Walk on the wild side
TTITLE7=New York City blues
TTITLE8=What's your problem ? Pipeline
EXTD=YEAR: 1999
EXTT0=
EXTT1=
EXTT2=
EXTT3=
EXTT4=
EXTT5=
EXTT6=
EXTT7=
EXTT8=
PLAYORDER=
